<?xml version="1.0" standalone="no"?>
<!DOCTYPE svg PUBLIC "-//W3C//DTD SVG 20010904//EN"
 "http://www.w3.org/TR/2001/REC-SVG-20010904/DTD/svg10.dtd">
<svg version="1.0" xmlns="http://www.w3.org/2000/svg"
 width="1920.000000pt" height="1080.000000pt" viewBox="0 0 1920.000000 1080.000000"
 preserveAspectRatio="xMidYMid meet">
<metadata>
Created by potrace 1.15, written by Peter Selinger 2001-2017
</metadata>
<g transform="translate(0.000000,1080.000000) scale(0.100000,-0.100000)"
fill="#000000" stroke="none">
<path d="M9210 10109 c-693 -60 -1346 -261 -1940 -597 -870 -491 -1584 -1278
-1986 -2187 l-53 -120 42 -5 c23 -3 45 -3 49 0 3 3 33 64 66 136 449 989 1284
1823 2285 2280 1118 511 2397 558 3542 129 819 -307 1493 -803 2061 -1519 l31
-39 37 22 c20 12 36 24 36 27 0 2 -44 59 -99 126 -557 693 -1301 1217 -2131
1503 -388 133 -754 209 -1175 245 -139 11 -626 11 -765 -1z"/>
<path d="M9385 9634 c-21 -22 -25 -37 -25 -84 0 -76 24 -100 98 -100 51 0 52
-1 52 -30 0 -17 -5 -30 -12 -30 -7 0 -23 -3 -35 -6 -17 -5 -23 -2 -23 10 0 12
-10 16 -40 16 -35 0 -40 -3 -40 -22 0 -12 12 -35 27 -50 24 -25 33 -28 94 -28
63 0 69 2 88 29 32 44 29 126 -4 161 -23 24 -32 26 -74 22 -48 -4 -48 -4 -53
27 -4 30 -3 31 34 31 27 0 38 -4 38 -15 0 -15 26 -20 54 -9 24 9 20 57 -7 82
-19 18 -35 22 -86 22 -54 0 -65 -3 -86 -26z"/>
<path d="M9827 9653 c-10 -18 -88 -325 -84 -329 2 -3 21 -7 40 -11 34 -5 36
-4 42 29 6 33 8 34 43 29 31 -5 38 -11 40 -33 3 -22 9 -27 40 -31 20 -2 39 -3
41 -1 2 2 -6 68 -18 146 -36 235 -25 208 -87 208 -29 0 -55 -3 -57 -7z"/>
<path d="M9207 9639 c-38 -4 -70 -9 -72 -11 -6 -6 28 -323 35 -331 4 -5 46 -5
94 -1 l86 7 0 38 0 39 -54 -6 c-53 -6 -55 -6 -62 20 -3 15 -4 29 -2 32 3 2 28
7 57 11 45 5 51 9 51 29 0 48 -8 54 -66 48 l-54 -7 0 32 c0 30 1 31 48 31 27
0 51 2 53 5 3 2 3 20 1 40 -5 39 1 38 -115 24z"/>
<path d="M10045 9638 c-9 -30 -36 -310 -31 -323 3 -9 18 -15 35 -15 33 0 34 4
47 115 8 67 5 73 34 -66 l11 -57 45 -7 c25 -3 48 -5 50 -2 4 4 44 306 44 335
0 7 -14 12 -39 12 l-39 0 -8 -87 -7 -88 -21 89 c-16 68 -26 91 -41 97 -31 12
-75 10 -80 -3z"/>
<path d="M8958 9606 c-43 -7 -80 -14 -82 -17 -3 -2 7 -80 21 -172 l27 -167 33
0 c42 0 47 13 35 81 -6 30 -10 55 -9 56 1 0 18 3 37 5 l35 3 9 -63 9 -62 36 6
c20 4 38 8 40 10 8 7 -20 128 -34 144 -10 11 -12 19 -4 27 6 6 7 30 3 62 -5
43 -12 56 -39 77 -17 13 -34 23 -36 23 -2 -1 -39 -7 -81 -13z"/>
<path d="M10311 9568 c-5 -29 -20 -102 -31 -161 -12 -60 -19 -114 -17 -122 3
-7 39 -18 90 -25 107 -16 131 -5 147 73 38 186 38 193 19 224 -16 26 -29 31
-91 42 -40 7 -81 15 -90 17 -13 4 -19 -6 -27 -48z"/>
<path d="M8706 9557 c-39 -9 -54 -19 -68 -43 -18 -30 -17 -33 9 -151 26 -115
29 -122 60 -138 29 -16 39 -16 93 -5 47 10 65 19 81 41 l20 29 -27 124 c-26
112 -31 125 -57 140 -33 18 -43 19 -111 3z"/>
<path d="M10729 9507 c-23 -16 -36 -36 -46 -70 -13 -44 -12 -51 4 -80 14 -23
31 -35 65 -45 46 -13 47 -13 36 -42 -5 -17 -11 -30 -12 -30 -22 0 -64 24 -60
35 3 7 -5 15 -19 19 -14 3 -32 8 -40 12 -23 8 -30 -40 -11 -79 15 -30 25 -37
80 -52 60 -16 64 -16 93 1 23 14 35 31 46 72 15 50 15 55 -2 85 -14 23 -31 35
-65 45 -38 10 -45 16 -41 32 7 27 16 31 51 24 20 -4 29 -11 25 -20 -5 -13 32
-34 62 -34 24 0 27 49 6 83 -15 24 -33 35 -80 48 -60 17 -61 17 -92 -4z"/>
<path d="M8455 9489 c-46 -14 -64 -25 -77 -48 -16 -28 -15 -34 19 -149 31
-103 40 -122 65 -137 28 -16 33 -16 92 0 84 23 103 52 86 127 -13 50 -13 50
-48 45 -45 -8 -45 -9 -34 -50 10 -34 9 -36 -21 -46 -16 -6 -32 -10 -34 -8 -2
2 -15 43 -29 92 -22 72 -24 89 -13 96 27 17 57 10 63 -15 5 -22 9 -24 37 -16
41 12 41 12 33 54 -5 29 -14 41 -43 55 -35 17 -38 17 -96 0z"/>
<path d="M10917 9307 c-31 -85 -57 -158 -57 -163 0 -11 60 -35 71 -29 4 3 10
19 14 35 9 39 16 42 67 29 67 -18 95 1 129 91 27 69 27 73 12 105 -13 28 -27
37 -89 59 -39 14 -76 26 -81 26 -4 0 -34 -69 -66 -153z"/>
<path d="M8193 9408 c-69 -27 -83 -58 -60 -132 14 -42 23 -55 51 -69 32 -15
38 -15 76 0 43 17 53 13 64 -24 6 -18 2 -22 -25 -28 -19 -4 -34 -3 -38 4 -11
16 -83 -9 -76 -27 3 -7 5 -18 5 -23 0 -5 18 -18 39 -28 l39 -20 61 22 c55 20
63 26 73 59 15 52 -13 130 -56 150 -27 13 -36 13 -78 0 -52 -17 -52 -17 -62
14 -5 16 -2 23 11 27 10 2 26 8 36 12 12 5 17 2 17 -8 0 -14 5 -14 35 -4 19 7
34 15 35 20 1 30 -4 40 -32 57 -39 24 -48 24 -115 -2z"/>
<path d="M11220 9339 c-19 -7 -36 -34 -74 -119 -62 -141 -59 -161 27 -204 52
-26 62 -28 95 -18 36 11 40 17 89 127 50 111 51 116 38 148 -11 26 -26 39 -66
55 -56 24 -71 25 -109 11z"/>
<path d="M7815 9258 c-38 -17 -72 -32 -74 -34 -6 -6 141 -314 150 -314 7 0 56
19 67 26 2 1 -10 29 -27 62 l-30 59 25 12 c39 17 44 15 69 -44 14 -30 27 -55
30 -55 9 0 65 30 65 35 0 2 -12 31 -26 63 -16 37 -33 62 -45 65 -13 4 -17 10
-13 22 4 9 -4 38 -16 65 -17 36 -31 52 -53 60 -41 14 -43 14 -122 -22z"/>
<path d="M11437 9208 c-85 -155 -127 -236 -127 -245 0 -10 42 -33 61 -33 5 0
21 24 36 54 l26 54 33 -15 33 -16 -27 -51 c-15 -28 -28 -54 -30 -58 -2 -4 11
-14 29 -24 31 -16 33 -15 47 2 29 40 53 97 48 116 -3 14 1 22 15 25 11 3 31
27 44 53 20 40 22 52 13 82 -8 29 -23 41 -88 76 l-78 42 -35 -62z"/>
<path d="M7655 9179 c-22 -12 -59 -32 -83 -46 l-43 -24 24 -42 c50 -86 108
-201 92 -182 -9 11 -20 26 -24 34 -7 11 -13 10 -39 -3 -35 -18 -39 -31 -17
-60 21 -27 19 -33 -13 -50 l-28 -14 -51 82 -51 83 29 17 c29 17 30 17 48 -5
l18 -23 32 20 31 20 -23 35 c-15 23 -35 37 -58 43 -32 8 -43 5 -92 -24 -46
-28 -56 -39 -61 -68 -4 -30 3 -48 55 -133 66 -107 71 -113 112 -123 43 -10
134 48 147 93 5 19 7 39 4 45 -3 6 1 2 10 -8 8 -10 17 -24 19 -30 5 -13 157
62 164 81 2 6 -3 23 -12 37 l-17 25 -49 -24 c-47 -24 -49 -24 -59 -6 -16 31
-13 36 35 59 l45 22 -17 35 c-9 19 -20 35 -24 35 -3 0 -27 -11 -51 -25 l-45
-25 -11 25 c-11 23 -8 26 33 51 25 14 45 28 45 30 0 7 -30 64 -33 64 -1 -1
-20 -10 -42 -21z"/>
<path d="M9220 9179 c-19 -5 -100 -18 -180 -29 -657 -91 -1314 -380 -1850
-814 -237 -192 -492 -465 -709 -760 -40 -55 -154 -233 -175 -275 -15 -28 -15
-29 24 -55 l40 -26 15 31 c9 17 19 28 22 25 3 -3 -2 -17 -11 -31 -16 -24 -15
-26 35 -87 66 -81 103 -160 129 -278 16 -69 20 -113 16 -160 l-6 -65 58 -2
c57 -1 208 -35 247 -55 11 -6 43 -28 71 -49 l51 -38 12 41 c8 25 33 61 67 95
45 46 54 61 54 92 0 20 7 61 15 91 8 30 20 82 25 115 6 33 17 80 25 105 7 25
18 65 24 90 15 66 47 181 58 210 29 71 45 139 37 153 -5 9 -82 74 -172 146
l-163 131 -97 -6 c-62 -4 -106 -12 -123 -23 -44 -26 -122 -127 -249 -321 -76
-117 -113 -166 -79 -105 87 154 306 442 341 449 105 20 189 26 210 15 23 -12
215 -163 233 -183 6 -6 34 -31 63 -55 61 -50 61 -51 22 -176 -42 -131 -85
-296 -112 -420 -6 -27 -17 -75 -25 -105 -8 -30 -17 -77 -20 -104 l-5 -49 28 7
c16 3 137 25 269 47 218 37 245 40 295 29 63 -14 132 -50 154 -82 l16 -22 32
31 c59 55 175 133 250 167 93 43 284 89 368 88 131 0 272 -52 368 -136 18 -16
34 -27 36 -25 2 2 16 56 31 119 49 203 125 395 201 510 l24 36 -81 160 c-44
87 -91 177 -104 199 -14 22 -31 54 -39 72 -9 17 -20 34 -26 38 -43 27 74 187
310 424 147 147 243 226 400 332 l95 64 285 0 c232 0 299 -3 360 -17 41 -9 98
-21 125 -27 81 -16 137 -32 183 -52 23 -10 49 -19 57 -19 8 0 36 -10 62 -21
98 -43 138 -62 153 -71 8 -4 26 -13 40 -19 14 -6 32 -15 40 -20 8 -5 26 -15
40 -22 14 -6 67 -40 118 -73 90 -60 104 -73 209 -216 73 -100 225 -379 248
-458 4 -14 14 -34 21 -45 8 -11 14 -28 14 -38 0 -10 9 -35 20 -57 11 -22 20
-47 20 -57 1 -10 9 -36 20 -58 11 -22 19 -49 20 -60 0 -12 9 -46 20 -78 11
-31 20 -67 20 -79 0 -48 16 -52 49 -11 25 29 31 45 28 68 -8 55 -62 239 -92
310 -7 17 -27 68 -45 114 -17 46 -35 91 -40 100 -5 9 -29 57 -53 106 -24 50
-58 113 -75 140 -17 28 -43 70 -58 95 -15 25 -45 67 -66 93 -21 27 -38 53 -38
57 0 13 80 78 137 110 l51 29 43 -29 c260 -173 564 -451 772 -707 90 -111 112
-133 135 -133 15 0 45 -3 67 -7 l39 -6 -32 44 c-156 213 -429 505 -621 664
-104 85 -286 221 -371 276 -145 94 -377 220 -530 286 -58 25 -118 51 -135 59
-63 28 -335 116 -445 144 -169 43 -232 56 -360 74 -63 10 -157 24 -208 32
-105 16 -710 18 -772 3z m229 -94 c63 -32 211 -221 211 -268 0 -9 -26 -35 -57
-58 -198 -145 -264 -200 -399 -336 -84 -83 -199 -212 -258 -286 -114 -146
-131 -158 -215 -156 l-46 1 57 9 c81 12 101 25 158 104 152 213 492 542 692
671 62 39 65 57 25 118 -56 85 -137 176 -164 187 -45 17 -416 -22 -598 -62
-27 -6 -77 -17 -110 -24 -114 -24 -297 -78 -410 -120 -38 -14 -83 -30 -99 -35
-16 -5 -39 -16 -52 -25 -13 -8 -30 -15 -39 -15 -9 0 -33 -9 -53 -20 -20 -10
-80 -40 -132 -66 -104 -50 -220 -113 -241 -130 -8 -6 -21 -13 -29 -16 -14 -5
-146 -90 -218 -140 -69 -48 -267 -204 -314 -248 -44 -40 -52 -53 -69 -120
l-19 -75 4 57 c3 32 13 71 23 88 19 34 188 179 298 257 130 93 146 103 154
103 5 0 14 7 21 15 7 9 42 32 78 53 35 20 80 47 100 59 67 39 380 193 394 193
8 0 18 4 23 9 15 14 180 77 275 105 25 8 59 18 75 24 72 25 245 68 340 84 33
5 89 16 125 25 36 8 119 19 185 24 99 7 157 14 248 28 4 0 21 -6 36 -14z
m-2291 -1298 c172 -144 241 -197 258 -197 9 0 35 8 58 19 23 10 66 29 96 41
30 12 74 31 98 41 23 10 47 19 53 19 6 0 25 7 42 14 34 16 131 51 182 66 27 8
50 15 160 52 17 6 48 15 70 20 22 6 69 18 105 28 155 44 178 50 191 50 23 -1
-48 -29 -89 -35 -38 -6 -141 -35 -222 -62 -25 -8 -61 -18 -80 -23 -39 -9 -111
-34 -182 -62 -26 -10 -56 -18 -67 -18 -11 0 -22 -4 -26 -9 -3 -5 -22 -15 -43
-21 -57 -18 -266 -101 -277 -111 -6 -4 -30 -11 -52 -15 -42 -6 -43 -6 -180
107 -189 156 -207 174 -199 202 3 12 7 36 8 52 1 17 3 4 5 -27 l4 -57 87 -74z"/>
<path d="M11676 9109 c-10 -17 -16 -32 -14 -33 1 -2 13 -9 26 -15 12 -6 22
-16 22 -21 0 -4 -30 -57 -67 -116 l-67 -107 23 -18 c13 -11 29 -19 36 -19 7 0
43 50 80 110 37 61 71 110 74 110 3 0 15 -7 25 -15 11 -8 22 -15 26 -15 6 0
40 54 40 63 0 7 -168 107 -179 107 -4 0 -15 -14 -25 -31z"/>
<path d="M12013 8917 c-41 -46 -193 -247 -193 -256 0 -9 44 -41 57 -41 4 0 23
21 42 45 18 25 37 45 41 45 4 0 18 -8 30 -18 l21 -17 -35 -47 c-20 -26 -36
-50 -36 -53 0 -10 43 -44 55 -44 16 0 85 97 85 120 0 12 8 23 19 26 11 3 33
23 51 44 27 34 31 45 25 78 -5 32 -16 45 -74 89 l-69 51 -19 -22z"/>
<path d="M7184 8896 c-86 -58 -86 -85 6 -215 63 -89 73 -99 105 -103 28 -3 47
4 89 31 70 46 78 83 34 149 l-29 42 -30 -20 c-34 -25 -34 -24 -12 -61 16 -28
16 -29 -2 -44 -11 -8 -25 -15 -31 -15 -10 0 -119 149 -112 154 44 34 50 35 68
14 17 -21 23 -20 69 11 21 14 -25 81 -56 81 -12 0 -27 2 -35 5 -7 3 -36 -10
-64 -29z"/>
<path d="M12131 8654 c-61 -70 -111 -130 -111 -134 0 -4 32 -34 71 -66 l70
-57 24 29 24 29 -42 37 -42 36 22 23 23 23 33 -32 c40 -39 47 -39 77 -7 l24
26 -43 37 -43 37 21 19 c20 18 21 18 56 -13 20 -17 39 -31 44 -31 15 0 55 50
45 58 -102 87 -133 112 -137 112 -3 0 -55 -57 -116 -126z"/>
<path d="M6968 8735 c-34 -25 -47 -43 -52 -70 -7 -34 -2 -42 71 -135 76 -96
79 -99 119 -100 57 0 129 54 138 105 7 34 2 42 -71 135 -76 96 -79 99 -119
100 -32 0 -51 -8 -86 -35z"/>
<path d="M9785 8742 c-143 -50 -561 -410 -713 -614 -22 -29 -56 -73 -76 -98
-20 -25 -36 -51 -36 -58 0 -7 31 -65 68 -130 38 -64 94 -170 126 -234 31 -65
60 -118 64 -118 4 0 25 25 46 55 93 130 258 269 394 332 75 35 300 93 361 93
47 0 209 -39 252 -61 92 -46 202 -160 256 -264 36 -70 83 -264 90 -372 l6 -93
46 34 c105 76 295 143 462 162 59 7 228 -23 298 -52 69 -29 192 -127 239 -191
l46 -63 49 47 c82 81 85 97 43 233 -9 30 -26 87 -38 125 -24 84 -55 170 -74
207 -8 14 -14 32 -14 39 0 12 -126 272 -153 314 -54 87 -138 209 -174 254 -42
51 -113 111 -132 111 -5 0 -15 7 -22 16 -7 9 -22 20 -34 26 -11 5 -38 20 -60
33 -22 13 -69 37 -105 55 -36 17 -72 35 -81 39 -14 8 -77 33 -179 70 -42 16
-159 49 -215 61 -176 39 -217 43 -465 46 -140 2 -264 0 -275 -4z"/>
<path d="M6766 8569 c-40 -36 -46 -46 -46 -81 0 -34 7 -47 39 -79 50 -50 88
-52 139 -8 l35 31 20 -21 c20 -20 20 -21 2 -40 -11 -14 -25 -19 -39 -15 -15 3
-29 -3 -45 -20 -24 -25 -24 -26 -6 -46 13 -14 30 -20 59 -20 33 1 49 8 84 39
36 34 42 44 42 80 0 33 -7 49 -36 81 -47 52 -88 54 -146 9 -37 -30 -40 -31
-53 -13 -8 11 -15 22 -15 26 0 10 41 32 60 32 21 1 60 28 60 42 0 21 -37 44
-72 44 -27 0 -46 -10 -82 -41z"/>
<path d="M12337 8562 c-50 -52 -51 -94 -2 -142 l35 -34 -22 -23 -22 -23 -23
22 c-13 12 -21 29 -18 38 3 10 -5 26 -20 40 -24 23 -25 23 -45 5 -13 -12 -20
-31 -20 -54 0 -30 8 -45 43 -79 36 -35 49 -42 83 -42 33 0 46 6 77 38 50 51
52 101 5 149 -31 32 -31 33 -13 53 l18 20 24 -22 c13 -12 21 -29 18 -38 -3
-10 5 -26 20 -40 24 -23 25 -23 45 -5 35 32 27 82 -22 132 -36 37 -48 43 -83
43 -34 0 -47 -6 -78 -38z"/>
<path d="M11595 8443 c-25 -13 -88 -59 -128 -94 -5 -4 16 -40 45 -80 85 -115
216 -354 276 -504 11 -27 29 -72 40 -100 10 -27 30 -84 42 -125 12 -41 28 -93
36 -115 7 -22 15 -55 19 -72 7 -34 18 -42 31 -22 16 26 205 157 271 187 39 18
126 45 192 60 67 15 121 31 121 36 0 23 -241 295 -382 432 -119 114 -331 292
-420 352 -109 72 -96 69 -143 45z"/>
<path d="M12495 8354 c-102 -90 -110 -100 -113 -137 -3 -35 1 -45 39 -83 36
-37 49 -44 82 -44 34 0 50 10 148 96 60 53 109 100 109 104 0 3 -11 17 -25 30
-29 27 -19 32 -147 -83 l-86 -78 -20 29 -21 28 83 72 c126 109 124 107 96 137
-13 14 -26 25 -30 25 -3 0 -55 -43 -115 -96z"/>
<path d="M6497 8312 c-31 -32 -57 -63 -57 -69 0 -11 237 -233 249 -233 4 0 36
29 71 65 l65 65 -30 24 -30 25 -36 -36 c-36 -35 -37 -35 -63 -17 l-27 17 41
42 40 41 -23 22 c-31 29 -35 28 -77 -13 l-36 -36 -19 21 c-18 20 -18 21 18 58
l37 38 -23 22 c-13 12 -28 22 -33 22 -5 0 -35 -26 -67 -58z"/>
<path d="M13852 8343 c-13 -2 -126 -47 -250 -98 -251 -103 -301 -136 -318
-210 -9 -36 -12 -39 -61 -50 -112 -26 -139 -63 -192 -271 -23 -89 -41 -170
-41 -180 0 -78 64 -164 137 -183 25 -7 41 -16 38 -24 -2 -6 -9 -45 -15 -86
l-12 -73 -28 51 c-72 130 -200 245 -314 280 -152 47 -200 48 -371 9 -168 -38
-347 -144 -465 -276 -59 -65 -167 -224 -201 -294 -13 -27 -25 -48 -28 -48 -4
0 -17 26 -31 58 -61 140 -209 282 -334 321 -97 30 -185 43 -236 36 -228 -32
-386 -105 -548 -250 l-53 -48 8 64 c16 123 7 276 -21 387 -31 126 -71 204
-145 282 -78 83 -150 123 -260 145 -101 20 -151 15 -306 -30 -102 -30 -156
-56 -250 -123 -219 -154 -385 -409 -478 -732 -31 -105 -77 -310 -77 -339 0
-32 -16 -25 -48 22 -91 132 -240 209 -402 209 -72 1 -247 -38 -324 -72 -79
-33 -184 -108 -272 -193 l-82 -78 -6 36 c-11 55 -72 110 -138 125 -47 10 -76
8 -273 -24 -284 -47 -292 -49 -340 -100 -37 -38 -43 -51 -60 -139 -10 -53 -21
-97 -24 -97 -4 0 -19 20 -34 45 -54 85 -142 144 -250 169 -74 17 -181 20 -238
7 l-37 -8 16 61 c35 132 7 317 -64 424 -75 114 -167 179 -293 207 -61 14 -83
15 -133 5 -130 -25 -210 -75 -279 -172 -34 -50 -47 -78 -75 -167 -3 -8 -19 6
-42 37 -39 54 -112 115 -157 132 -70 26 -172 42 -240 37 -153 -12 -337 -77
-392 -140 -36 -41 -33 -32 -72 -207 -37 -168 -32 -208 37 -276 24 -24 51 -44
60 -44 46 -1 47 1 -18 -396 -34 -208 -98 -597 -142 -864 -93 -566 -98 -636
-54 -804 31 -118 71 -190 145 -258 66 -60 108 -82 195 -102 91 -22 172 -20
268 5 99 25 162 56 254 125 40 30 74 54 77 54 4 0 22 -11 41 -24 43 -29 170
-59 247 -58 69 1 206 35 268 67 42 21 119 76 196 139 l31 25 46 -30 c59 -39
173 -69 261 -69 76 0 246 37 337 74 72 29 179 99 249 162 101 91 205 251 283
439 21 49 38 83 38 75 0 -24 56 -135 99 -197 70 -103 173 -192 274 -238 89
-41 231 -68 322 -61 78 5 276 49 364 81 24 8 46 14 47 12 2 -2 1 -33 -3 -69
l-6 -65 -116 -7 c-755 -43 -1654 -187 -2221 -357 -294 -89 -645 -247 -907
-411 -663 -414 -1124 -931 -1472 -1649 -82 -168 -122 -273 -123 -318 -2 -107
91 -203 197 -203 38 0 107 23 155 53 80 49 290 145 391 178 112 37 273 61 414
61 179 0 291 -28 458 -112 121 -62 231 -162 314 -286 32 -47 73 -96 90 -108
40 -26 105 -37 156 -25 69 16 101 49 184 184 343 565 931 974 1848 1287 523
178 1189 322 2080 449 387 56 596 81 1220 151 1321 148 1506 175 1910 280 417
108 777 268 1100 488 278 189 477 388 648 647 110 168 182 344 237 585 56 243
61 417 19 638 -43 225 -96 360 -204 522 -103 156 -245 286 -380 349 -70 33
-223 71 -286 71 -56 0 -198 -34 -247 -59 -70 -36 -158 -110 -202 -170 -24 -33
-45 -59 -46 -58 -2 3 125 779 130 792 2 6 39 16 82 22 124 19 155 31 199 77
38 39 43 52 83 211 46 177 48 214 16 276 -38 75 -144 116 -243 94 -26 -5 -27
-3 -38 50 -14 65 -40 105 -86 134 -34 21 -122 34 -165 24z m114 -88 c48 -20
68 -70 59 -143 -4 -31 -9 -61 -11 -67 -4 -9 21 -8 95 5 85 14 106 15 138 4 45
-16 70 -44 79 -88 7 -40 -60 -308 -87 -347 -25 -36 -57 -47 -187 -68 -62 -10
-114 -20 -116 -22 -2 -2 -54 -314 -115 -694 -62 -379 -115 -699 -118 -710 -4
-16 0 -15 26 10 42 39 76 110 107 225 78 289 239 464 462 502 81 14 169 3 267
-31 236 -83 472 -370 560 -679 92 -326 82 -601 -36 -962 -152 -464 -541 -875
-1104 -1167 -330 -170 -619 -272 -1003 -353 -300 -63 -516 -92 -1612 -215
-1294 -144 -1975 -249 -2664 -411 -1022 -238 -1779 -602 -2256 -1083 -129
-130 -269 -310 -349 -449 -30 -51 -65 -102 -79 -112 -67 -53 -147 -29 -198 60
-75 127 -226 268 -360 334 -187 92 -328 121 -544 112 -264 -11 -409 -52 -689
-193 -215 -109 -242 -114 -297 -59 -47 47 -46 91 7 214 136 318 353 682 565
946 431 537 1069 974 1759 1203 522 174 1338 311 2249 378 116 9 212 17 214
19 2 2 8 46 13 97 5 52 15 131 22 175 l14 82 -61 -33 c-117 -65 -378 -135
-498 -135 -75 0 -210 35 -282 73 -91 48 -202 163 -255 265 -43 84 -101 281
-101 346 -1 84 -13 79 -37 -15 -75 -294 -196 -540 -333 -680 -198 -202 -559
-298 -750 -199 -14 7 -47 30 -73 52 l-48 40 -67 -64 c-174 -167 -353 -230
-533 -188 -68 16 -101 32 -148 76 -28 25 -40 30 -44 21 -9 -23 -156 -136 -216
-167 -76 -38 -165 -60 -242 -60 -260 1 -411 186 -411 505 0 87 11 174 51 410
28 165 78 471 111 680 33 209 76 473 95 587 43 252 43 252 11 244 -60 -15
-137 32 -149 91 -7 38 48 282 72 313 37 51 252 120 372 120 66 0 161 -25 208
-54 45 -29 94 -84 120 -134 47 -93 63 -269 40 -441 -6 -45 -10 -84 -8 -85 2
-2 45 7 94 20 205 53 374 14 464 -108 l35 -47 18 77 c10 42 25 87 34 99 21 33
121 80 217 103 279 67 476 -39 530 -284 27 -123 22 -230 -27 -536 -53 -325
-70 -457 -63 -490 3 -19 5 -17 6 10 4 116 220 1280 246 1331 9 16 28 35 43 43
15 8 133 31 262 52 230 37 236 37 272 20 23 -11 43 -31 54 -54 17 -36 17 -41
-16 -207 -18 -93 -35 -179 -38 -190 -3 -11 18 25 47 80 86 168 219 327 344
414 148 102 355 161 489 140 130 -20 248 -108 315 -235 36 -68 73 -205 73
-273 0 -90 18 -20 58 229 44 270 89 455 148 604 133 336 362 571 634 649 125
36 183 41 263 23 91 -21 141 -48 201 -110 161 -162 205 -452 119 -780 -75
-288 -208 -468 -377 -512 -62 -16 -128 -9 -185 20 -35 19 -99 89 -116 129 -16
39 -16 40 -55 -203 -17 -107 -32 -204 -35 -215 -3 -16 7 -26 50 -49 69 -36
126 -98 167 -180 l32 -65 60 32 c72 38 183 139 226 207 22 34 43 94 70 197 61
238 120 377 230 541 156 233 348 360 611 402 65 11 88 10 155 -4 110 -22 178
-58 254 -135 98 -98 156 -224 190 -405 l13 -69 33 93 c136 380 361 630 644
718 125 38 208 46 296 28 110 -22 178 -58 254 -135 114 -115 156 -217 206
-496 5 -33 15 12 55 250 26 160 50 305 54 322 l6 33 -49 -1 c-81 -2 -142 46
-142 112 0 42 73 304 92 331 19 28 95 58 145 58 25 0 32 12 53 88 13 50 34 65
160 116 47 19 146 60 220 90 144 60 171 64 226 41z m-7838 -1079 c153 -41 264
-175 293 -355 14 -86 3 -162 -37 -250 -51 -114 -130 -177 -249 -202 -179 -36
-371 112 -414 319 -23 111 -6 245 42 321 55 91 119 141 208 165 69 19 92 19
157 2z m4052 -895 c-15 -60 -38 -126 -51 -147 -33 -54 -96 -121 -145 -155
l-41 -28 -31 47 c-37 58 -85 107 -135 140 -31 21 -37 30 -33 51 3 14 10 62 17
106 7 44 13 82 15 84 2 2 18 -6 36 -17 18 -11 63 -28 99 -37 62 -16 72 -16
141 0 41 9 92 27 114 40 21 14 39 25 40 25 0 0 -11 -49 -26 -109z"/>
<path d="M13685 8061 l-210 -87 -14 -76 -14 -77 -71 -11 c-39 -6 -82 -13 -96
-16 -23 -4 -28 -15 -57 -126 -18 -68 -30 -124 -28 -126 4 -5 154 16 188 25 12
3 17 -2 17 -17 0 -12 -54 -351 -121 -753 -66 -403 -123 -771 -126 -818 -11
-163 27 -290 108 -363 60 -54 115 -70 210 -64 242 18 490 294 554 618 56 278
186 424 365 407 98 -9 209 -79 287 -182 253 -333 157 -905 -221 -1313 -186
-199 -482 -385 -771 -480 -307 -102 -916 -207 -1425 -247 -551 -42 -926 -50
-1931 -40 l-796 7 57 122 c109 229 208 597 231 858 l12 138 51 16 c129 42 310
154 385 240 17 19 32 34 34 34 2 0 7 -36 11 -79 20 -237 117 -423 260 -499 47
-25 60 -27 166 -26 128 0 194 19 307 85 134 79 284 263 378 462 115 245 184
583 171 837 -11 214 -71 387 -169 485 -75 74 -133 99 -238 103 -168 7 -323
-56 -464 -190 -168 -159 -279 -372 -355 -683 -17 -71 -44 -152 -58 -180 -15
-27 -67 -91 -117 -141 -94 -95 -173 -147 -278 -183 -98 -34 -96 -35 -121 44
-52 161 -117 228 -237 242 -43 5 -48 8 -44 27 6 27 44 257 95 576 60 372 110
549 200 700 125 213 300 238 356 53 20 -66 19 -70 -29 -75 -165 -19 -294 -214
-314 -476 -9 -127 33 -248 100 -283 30 -16 98 -14 134 4 154 80 286 397 286
687 0 181 -39 306 -123 390 -75 75 -151 96 -271 75 -300 -52 -537 -302 -669
-705 -52 -157 -66 -230 -169 -881 -50 -311 -95 -579 -101 -595 -56 -151 -186
-311 -321 -396 -135 -87 -275 -107 -381 -55 -66 33 -121 90 -154 161 -25 55
-47 175 -42 228 l3 33 155 26 c184 31 243 53 329 117 113 86 205 230 253 397
19 66 23 104 23 220 0 121 -3 149 -23 208 -30 87 -97 178 -158 213 -61 36
-169 44 -264 20 -345 -88 -588 -414 -694 -928 -82 -397 -30 -705 149 -883 141
-141 294 -172 541 -110 177 45 323 124 446 243 53 51 68 61 68 45 0 -11 -18
-132 -40 -269 -32 -198 -40 -273 -39 -364 l1 -115 -113 -7 c-719 -42 -1282
-113 -1871 -234 -611 -125 -1045 -303 -1524 -624 -259 -175 -566 -457 -761
-702 -204 -255 -400 -582 -534 -892 -21 -49 -39 -90 -39 -91 0 -1 78 37 173
85 185 93 301 136 467 171 90 20 134 23 310 23 190 0 212 -2 300 -26 273 -76
496 -229 628 -432 l50 -76 33 58 c408 724 1267 1255 2548 1577 356 89 844 186
1286 254 491 76 752 108 1885 236 932 105 1087 128 1416 210 896 222 1586 718
1824 1312 84 211 122 396 122 598 0 323 -99 601 -288 804 -126 137 -262 205
-409 206 -71 0 -88 -4 -147 -33 -126 -62 -208 -182 -269 -397 -38 -135 -67
-193 -127 -257 -114 -122 -242 -117 -242 9 0 44 243 1559 251 1568 2 2 73 15
157 28 85 14 155 27 156 29 6 9 64 243 61 247 -2 2 -77 -8 -166 -23 -89 -14
-164 -24 -166 -22 -5 5 23 205 33 239 3 9 2 17 -3 16 -4 0 -102 -39 -218 -88z
m-2558 -1193 c12 -13 30 -50 40 -83 24 -80 24 -393 -1 -575 -61 -448 -219
-860 -329 -860 -41 0 -57 10 -76 49 -35 67 -44 150 -38 339 14 440 151 962
293 1109 46 49 79 55 111 21z m-2605 -428 c34 -67 21 -253 -32 -458 -56 -223
-107 -282 -261 -307 -46 -7 -86 -11 -88 -9 -7 6 19 140 50 259 72 282 170 503
238 540 42 23 74 15 93 -25z m1056 -666 c13 -9 36 -41 50 -72 26 -55 27 -64
26 -222 0 -145 -4 -184 -32 -320 -62 -298 -135 -513 -210 -622 -63 -89 -113
-94 -128 -12 -7 39 183 1241 200 1262 12 16 59 9 94 -14z"/>
<path d="M11031 6645 c-101 -221 -177 -595 -188 -926 -4 -113 -2 -178 4 -182
18 -11 93 187 138 364 55 216 99 631 78 744 l-9 50 -23 -50z"/>
<path d="M12460 7315 c-30 -8 -93 -34 -140 -57 -71 -35 -101 -57 -185 -142
-66 -67 -116 -129 -148 -182 -161 -272 -257 -665 -244 -993 11 -282 102 -475
261 -559 47 -25 60 -27 166 -26 98 0 125 4 182 26 104 39 175 86 264 173 214
210 357 552 405 970 23 206 -9 443 -81 585 -39 76 -117 157 -185 190 -62 31
-208 38 -295 15z m97 -217 c12 -13 30 -50 40 -83 24 -80 24 -393 -1 -575 -61
-448 -219 -860 -329 -860 -41 0 -57 10 -76 49 -35 67 -44 150 -38 339 14 440
151 962 293 1109 46 49 79 55 111 21z"/>
<path d="M12461 6875 c-101 -221 -177 -595 -188 -926 -4 -113 -2 -178 4 -182
18 -11 93 187 138 364 55 216 99 631 78 744 l-9 50 -23 -50z"/>
<path d="M5149 6921 c-20 -4 -71 -20 -112 -35 l-76 -28 -16 -76 c-9 -43 -20
-91 -25 -108 l-8 -31 48 5 c96 9 137 -43 127 -161 -4 -57 -184 -1176 -257
-1600 -61 -359 -28 -544 114 -632 46 -28 56 -30 146 -30 91 0 100 2 174 39 88
43 201 143 262 231 20 30 38 55 39 55 2 0 15 -25 29 -55 32 -64 99 -127 154
-143 90 -27 208 -8 312 51 76 43 197 167 250 255 l43 73 18 -52 c63 -177 193
-240 402 -193 132 30 260 99 352 191 120 121 239 369 311 653 18 75 244 1184
241 1187 -6 5 -409 -65 -416 -73 -7 -8 -126 -619 -185 -954 -41 -227 -59 -406
-52 -507 5 -89 4 -93 -20 -123 -54 -64 -144 -81 -189 -36 -39 40 -48 95 -42
266 7 163 26 319 79 615 42 236 45 428 10 517 -27 67 -92 132 -148 147 -85 24
-214 9 -316 -36 l-56 -25 -17 -77 c-9 -42 -20 -90 -25 -108 l-8 -32 47 6 c78
9 112 -23 126 -117 8 -56 -2 -137 -71 -573 -66 -420 -84 -477 -185 -578 -80
-80 -166 -97 -209 -42 -28 36 -26 70 25 388 90 555 97 609 98 725 2 132 -12
199 -53 264 -65 102 -222 124 -400 57 -30 -12 -61 -25 -68 -30 -8 -4 -23 -46
-33 -92 -10 -46 -21 -94 -24 -106 -5 -21 -3 -22 42 -17 30 3 58 0 73 -8 33
-17 60 -73 60 -124 0 -23 -24 -194 -54 -380 -97 -602 -99 -609 -177 -710 -99
-129 -229 -158 -259 -57 -12 39 7 168 199 1358 28 171 55 353 62 405 15 123 7
249 -21 322 -45 120 -161 170 -321 139z"/>
<path d="M14301 6443 c-70 -35 -115 -122 -165 -323 -65 -265 -192 -459 -383
-587 -262 -174 -544 -126 -667 114 -27 53 -56 193 -57 273 0 63 -2 71 -11 50
-95 -217 -180 -358 -281 -467 -148 -157 -304 -241 -507 -272 -196 -30 -393 71
-495 253 -46 82 -69 149 -93 265 l-18 92 -33 -88 c-168 -443 -436 -698 -791
-752 -148 -23 -301 30 -411 141 -63 64 -138 204 -159 295 -8 35 -16 51 -23 46
-7 -4 -37 -23 -67 -42 -30 -19 -83 -47 -118 -61 -34 -15 -65 -29 -68 -32 -3
-3 -9 -47 -14 -97 -18 -173 -110 -544 -180 -725 -17 -43 -29 -81 -26 -83 2 -2
422 -5 932 -6 937 -2 1072 1 1564 39 463 35 1000 119 1303 205 473 133 862
422 1039 772 123 244 157 509 91 707 -30 92 -68 154 -134 215 -85 79 -159 102
-228 68z m130 -92 c220 -141 249 -505 69 -861 -105 -206 -287 -390 -537 -541
-190 -115 -417 -194 -733 -257 -452 -90 -773 -127 -1420 -164 -218 -13 -1945
-17 -1957 -5 -2 3 7 42 21 87 58 181 146 571 146 643 0 34 3 37 72 70 40 20
73 35 74 34 0 -1 16 -36 36 -77 66 -140 172 -256 285 -311 63 -31 218 -60 278
-53 90 10 229 46 292 75 193 86 380 273 504 503 l41 76 33 -67 c65 -135 172
-250 282 -304 63 -31 218 -60 278 -53 90 10 229 46 292 75 174 78 337 231 468
439 l28 44 14 -46 c20 -71 91 -167 161 -219 120 -90 278 -110 461 -59 159 44
327 182 451 371 68 104 109 204 143 350 29 127 70 221 109 254 38 32 54 31
109 -4z"/>
<path d="M14270 6047 c0 -9 -12 -56 -28 -104 -25 -80 -27 -96 -20 -173 5 -47
9 -183 10 -302 2 -120 5 -218 8 -218 3 0 23 21 44 46 l39 46 -6 237 c-6 214
-27 465 -41 479 -3 3 -6 -2 -6 -11z"/>
<path d="M12923 5490 c-29 -38 -44 -71 -48 -101 -15 -108 -62 -287 -132 -502
-46 -140 -50 -191 -17 -204 14 -5 347 46 454 70 l55 12 12 100 c30 257 34 305
31 369 l-3 69 -42 12 c-63 19 -167 98 -221 169 l-48 63 -41 -57z"/>
<path d="M11539 5328 c-29 -46 -98 -128 -151 -184 l-98 -101 0 -87 0 -87 -93
-117 c-52 -64 -104 -126 -115 -136 -12 -11 -22 -23 -22 -28 0 -9 90 -11 114
-2 9 4 55 56 103 116 58 74 97 115 119 124 26 11 96 14 311 13 153 0 303 -4
333 -9 206 -29 371 -63 442 -91 26 -11 54 -19 64 -19 9 0 31 -13 48 -28 26
-23 40 -28 69 -24 39 4 45 17 27 53 -8 14 -4 36 15 91 81 224 172 588 148 588
-5 0 -31 -23 -58 -51 -69 -71 -239 -182 -316 -208 -115 -37 -243 -64 -314 -64
-205 -1 -405 103 -516 267 -24 36 -46 66 -50 66 -3 0 -30 -37 -60 -82z"/>
<path d="M13287 5128 c-4 -96 -13 -200 -21 -233 -9 -33 -15 -75 -16 -92 0 -28
4 -33 23 -32 55 2 72 14 79 54 10 53 38 359 38 411 0 41 -1 42 -44 53 -25 6
-47 11 -49 11 -2 0 -7 -78 -10 -172z"/>
<path d="M10109 5253 c-11 -3 -19 -26 -28 -82 -13 -87 -89 -414 -120 -516
l-19 -65 187 0 c103 0 350 -3 548 -7 l360 -6 94 114 c160 192 150 175 147 268
l-3 81 -50 -36 c-84 -60 -164 -95 -285 -125 -176 -44 -217 -46 -342 -15 -122
29 -178 55 -260 120 -60 48 -151 161 -187 234 -12 23 -22 41 -24 41 -1 -1 -9
-3 -18 -6z"/>
<path d="M11426 4820 c-25 -5 -49 -18 -65 -37 -64 -73 -162 -195 -159 -197 7
-5 616 13 784 24 195 12 490 36 567 46 l49 7 -21 21 c-21 20 -96 46 -206 71
-33 7 -82 18 -110 24 -157 34 -347 51 -571 50 -126 -1 -247 -5 -268 -9z"/>
<path d="M6247 5870 c-3 -58 -22 -206 -41 -330 -20 -124 -51 -319 -69 -433
l-34 -208 33 32 c53 51 80 128 109 304 63 392 95 618 95 676 l0 64 -44 0 -43
0 -6 -105z"/>
<path d="M8937 5888 c-26 -83 -115 -224 -187 -298 -71 -72 -175 -139 -256
-165 -28 -9 -95 -24 -150 -34 l-99 -18 1 -41 c1 -51 46 -127 93 -159 27 -18
48 -23 101 -23 58 0 78 5 141 37 104 52 220 169 277 281 40 76 46 97 73 269
16 103 28 191 26 196 -1 5 -10 -15 -20 -45z m-169 -420 c-34 -63 -144 -168
-214 -205 -46 -24 -75 -33 -111 -33 -52 0 -71 10 -97 51 l-16 25 103 23 c125
28 202 63 287 129 36 28 66 51 68 51 2 1 -7 -18 -20 -41z"/>
<path d="M5558 5852 c-30 -3 -39 -8 -42 -25 -6 -29 -24 -137 -96 -595 -33
-207 -62 -393 -66 -412 l-6 -35 31 30 c57 54 76 113 119 375 65 391 103 640
100 653 -2 7 -18 11 -40 9z"/>
<path d="M6005 7059 c-55 -12 -110 -60 -143 -123 -23 -44 -27 -63 -27 -141 0
-76 4 -98 26 -146 112 -239 390 -207 439 51 12 64 -1 153 -32 214 -55 110
-160 168 -263 145z"/>
<path d="M9826 6254 c-14 -38 -6 -62 33 -88 21 -15 53 -48 71 -73 l34 -47 53
58 c48 54 93 139 80 152 -3 3 -30 0 -59 -6 -46 -10 -66 -10 -126 4 -86 19 -79
19 -86 0z"/>
<path d="M12674 8173 c-60 -49 -123 -98 -138 -110 l-28 -22 53 -65 53 -64 28
20 c34 24 34 29 3 66 l-24 29 104 83 c58 46 105 87 105 91 0 4 -10 19 -22 34
l-23 25 -111 -87z"/>
<path d="M6382 8187 c-12 -13 -22 -29 -22 -36 0 -7 22 -39 48 -70 72 -83 71
-85 -22 -39 l-85 42 -26 -24 c-14 -13 -25 -26 -25 -30 0 -3 71 -43 158 -88
l158 -82 33 34 c22 23 31 39 25 48 -9 16 -214 268 -218 268 -1 0 -12 -10 -24
-23z"/>
<path d="M12876 8079 l-26 -21 19 -27 20 -27 -105 -74 c-58 -40 -107 -77 -110
-81 -6 -11 25 -59 38 -59 5 0 58 34 116 75 l107 75 21 -28 22 -27 26 25 c15
13 25 29 22 36 -8 20 -108 154 -116 154 -4 0 -19 -9 -34 -21z"/>
<path d="M6206 7975 c-9 -13 -16 -28 -16 -32 1 -4 62 -52 136 -107 l135 -98
25 23 c13 12 24 26 24 31 0 9 -266 208 -279 208 -5 0 -16 -11 -25 -25z"/>
<path d="M6091 7824 c-12 -15 -21 -30 -21 -35 0 -7 253 -187 277 -196 10 -4
103 109 103 126 0 4 -14 15 -31 25 -29 17 -31 17 -45 -1 -8 -10 -19 -26 -25
-36 -9 -16 -13 -17 -27 -5 -9 8 -61 45 -114 81 l-97 67 -20 -26z"/>
<path d="M7526 4783 c-64 -133 -179 -283 -270 -355 -37 -29 -43 -38 -25 -34
58 14 338 56 504 76 99 12 187 24 194 27 9 2 -6 14 -35 27 -92 43 -205 138
-273 230 -35 47 -65 86 -65 86 -1 0 -14 -26 -30 -57z"/>
<path d="M5143 3953 c-20 -3 -33 -10 -33 -18 0 -15 86 -265 94 -272 5 -5 76
39 76 48 0 16 -89 244 -97 245 -4 0 -23 -1 -40 -3z"/>
<path d="M14021 3871 l-53 -27 -48 -125 c-228 -593 -582 -1133 -1050 -1599
-481 -480 -1021 -827 -1655 -1065 -1037 -388 -2193 -388 -3230 0 -472 177
-905 423 -1288 732 l-118 96 -30 -29 c-16 -15 -29 -30 -29 -34 0 -20 303 -250
492 -374 667 -437 1400 -687 2213 -756 155 -13 595 -13 750 0 1145 97 2163
567 2965 1370 432 431 758 911 1000 1469 60 139 144 361 138 366 -2 2 -27 -9
-57 -24z"/>
<path d="M12755 3477 c-173 -31 -178 -33 -200 -69 -55 -94 -186 -250 -329
-393 -169 -168 -298 -274 -506 -412 -69 -45 -136 -90 -149 -99 -21 -15 -54
-16 -310 -11 -157 3 -306 11 -331 16 -25 6 -92 15 -150 21 -58 5 -127 17 -154
25 -27 8 -61 15 -76 15 -48 0 -61 29 -76 157 -8 65 -18 141 -24 168 -6 28 -14
103 -17 168 -4 82 -10 120 -19 124 -16 6 -455 -56 -799 -113 -506 -85 -925
-175 -1257 -271 -10 -3 -18 -9 -18 -13 0 -24 295 -323 418 -423 34 -28 62 -57
62 -65 0 -29 -243 -374 -285 -404 -5 -4 -41 -7 -80 -7 -85 1 -61 17 27 18 l57
1 44 58 c82 107 227 320 227 333 0 4 -40 41 -89 83 -48 41 -160 149 -248 240
l-160 166 -141 -45 c-345 -111 -913 -350 -886 -374 27 -24 139 -103 199 -142
39 -25 95 -61 125 -81 92 -59 299 -168 435 -228 22 -10 61 -28 86 -39 25 -12
53 -21 60 -21 8 0 23 -6 34 -14 11 -7 36 -17 55 -21 19 -4 44 -13 55 -20 11
-7 40 -17 65 -23 25 -6 68 -18 95 -27 115 -37 143 -45 198 -54 31 -6 66 -15
76 -21 11 -5 32 -10 48 -10 15 0 57 -7 93 -16 36 -8 112 -19 170 -24 58 -5
135 -17 172 -25 96 -22 618 -22 686 0 26 8 97 19 157 25 61 5 139 17 175 25
36 8 78 15 93 15 16 0 37 5 48 10 10 6 45 15 76 21 55 9 83 17 198 54 28 9 70
21 95 27 25 6 54 16 65 23 11 7 36 16 55 20 19 4 44 14 55 21 11 8 26 14 34
14 7 0 35 9 60 21 25 11 64 29 86 39 66 29 245 119 315 157 62 34 88 50 245
152 89 57 199 138 295 215 292 235 609 594 817 925 71 111 81 132 66 130 -5
-1 -57 -11 -118 -22z m-2190 -1004 c33 -8 96 -18 140 -23 44 -4 116 -15 160
-24 53 -10 166 -19 332 -23 208 -7 255 -11 268 -24 19 -19 32 -138 17 -165 -5
-10 -66 -48 -134 -83 -67 -35 -119 -60 -115 -55 10 10 145 86 194 108 17 8 37
24 43 36 15 28 5 124 -15 144 -10 9 -62 15 -187 20 -313 12 -503 33 -703 77
-105 23 -192 25 -239 5 -18 -7 -53 -17 -77 -20 -24 -4 -82 -16 -129 -26 -128
-29 -311 -60 -350 -60 -19 0 -51 -5 -70 -10 -19 -6 -105 -17 -190 -25 -86 -8
-162 -16 -170 -19 -8 -3 -96 -12 -196 -20 -99 -7 -190 -18 -201 -24 -11 -6
-56 -64 -100 -129 -44 -65 -103 -149 -131 -187 -58 -77 -58 -88 6 -131 20 -14
32 -25 26 -25 -22 0 -94 61 -94 79 0 11 12 33 26 51 26 31 75 100 181 258 31
46 65 89 77 97 12 7 70 15 141 19 66 4 138 11 160 16 22 5 106 14 186 20 81 6
162 15 180 20 19 6 72 13 119 16 47 4 121 15 165 25 44 10 94 19 110 19 26 0
79 10 255 52 165 39 196 41 315 11z"/>
<path d="M12275 3409 c-126 -16 -529 -63 -895 -104 -366 -41 -726 -83 -800
-92 l-135 -18 2 -90 c1 -50 9 -139 17 -200 9 -60 20 -148 26 -195 14 -101 29
-130 70 -130 16 0 71 -9 122 -19 87 -18 188 -31 398 -51 47 -5 171 -9 276 -9
177 -1 193 1 217 19 14 11 28 20 31 20 9 0 194 128 301 209 263 198 494 438
638 664 l17 27 -27 -1 c-16 -1 -131 -14 -258 -30z"/>
<path d="M12397 2467 c-39 -35 -47 -48 -47 -77 -1 -31 -2 -33 -14 -17 -7 9
-16 17 -19 17 -3 0 -43 -31 -89 -68 -46 -37 -93 -75 -105 -83 l-22 -15 35 -58
34 -58 -22 -18 c-13 -11 -26 -19 -30 -20 -3 0 -21 25 -38 55 -33 58 -36 59
-85 21 -16 -12 -18 -17 -7 -27 21 -22 13 -28 -18 -17 -28 9 -37 6 -85 -26 -48
-32 -56 -41 -61 -77 l-7 -42 -14 27 c-12 23 -16 25 -36 15 -18 -10 -155 -88
-165 -95 -3 -2 25 -63 33 -72 2 -2 17 4 34 12 l31 16 65 -130 66 -131 29 18
c17 9 30 22 30 29 0 6 -27 67 -61 135 -40 81 -57 125 -49 127 7 3 20 12 30 22
16 16 20 11 73 -90 51 -96 60 -108 93 -118 34 -10 41 -8 90 23 37 24 55 43 60
62 3 15 7 33 9 38 1 6 -4 22 -12 38 -22 43 -6 31 23 -18 14 -25 28 -45 31 -45
9 0 63 34 63 40 0 3 -18 34 -40 70 l-39 65 27 22 27 22 33 -52 c18 -28 37 -59
42 -67 7 -13 12 -13 35 0 15 8 30 20 32 27 4 11 -23 59 -96 173 -9 13 -11 21
-5 17 6 -3 35 -43 64 -87 34 -51 58 -79 67 -76 7 3 42 29 78 57 67 54 68 56
32 103 -14 19 -16 18 -59 -17 l-44 -36 -17 28 -17 29 42 34 c42 35 42 35 26
60 l-17 26 40 -5 c36 -5 44 -2 75 28 l35 34 19 -25 c11 -14 20 -28 20 -31 0
-13 -49 -39 -63 -33 -8 3 -27 -5 -42 -18 -26 -23 -27 -24 -8 -46 11 -15 33
-25 58 -28 36 -4 44 -1 82 36 62 59 67 103 19 168 -29 40 -43 51 -73 55 -32 6
-42 2 -68 -23 -37 -36 -50 -37 -66 -8 -10 18 -8 24 11 40 13 11 30 16 38 13
15 -5 62 30 62 47 0 4 -9 17 -20 28 -33 33 -78 26 -133 -23z m-426 -469 c6
-13 13 -25 15 -27 1 -2 17 7 34 19 17 12 32 21 34 19 28 -39 47 -71 38 -65 -6
4 -20 2 -29 -3 -45 -26 -45 -26 -26 -65 17 -38 17 -38 -7 -57 -14 -10 -27 -19
-30 -19 -3 0 -27 41 -54 92 l-48 91 23 18 c31 24 36 24 50 -3z"/>
<path d="M7000 2160 c-8 -5 -12 -10 -7 -10 4 0 1 -15 -7 -34 -18 -44 -10 -80
28 -120 32 -35 55 -83 49 -103 -3 -7 -17 -9 -39 -6 -20 3 -40 1 -49 -7 -17
-14 -20 -60 -4 -60 6 0 54 -21 106 -46 52 -25 96 -44 98 -42 1 2 6 17 9 34 6
27 3 35 -23 56 -16 14 -26 29 -23 34 14 19 65 34 118 34 48 0 60 4 85 29 42
42 40 87 -3 106 -22 9 -33 20 -33 34 0 17 -20 30 -100 66 -55 25 -103 45 -107
45 -4 0 -8 -9 -8 -21 l0 -20 -29 20 c-33 24 -40 25 -61 11z"/>
<path d="M7475 1918 c-25 -8 -41 -30 -92 -125 -55 -103 -61 -120 -55 -151 6
-30 17 -42 62 -69 43 -26 62 -32 85 -27 39 8 52 20 77 67 l20 40 -23 18 c-33
26 -46 23 -64 -11 -9 -16 -17 -30 -20 -30 -14 0 -55 25 -55 33 0 15 90 177 98
177 4 0 18 -9 31 -19 21 -16 22 -21 11 -41 -11 -20 -10 -25 11 -42 13 -10 31
-16 40 -14 12 3 4 -23 -32 -101 -27 -57 -49 -107 -49 -111 0 -4 33 -24 74 -44
l73 -36 17 35 c9 20 16 37 14 38 -2 1 -19 11 -40 21 l-36 19 59 124 c32 68 59
128 59 132 0 9 -60 43 -65 37 -1 -2 -9 -16 -17 -32 l-15 -29 -7 44 c-6 41 -10
46 -66 77 -32 17 -60 32 -62 31 -2 -1 -16 -5 -33 -11z"/>
<path d="M11484 1847 l-41 -22 40 -185 c22 -102 42 -187 44 -189 2 -3 19 3 37
12 32 15 34 18 29 54 -5 35 -2 40 23 51 25 12 29 11 49 -14 21 -26 24 -27 54
-15 17 8 31 19 31 25 0 17 -199 301 -213 303 -6 1 -30 -8 -53 -20z"/>
<path d="M11319 1779 l-45 -20 7 -52 c4 -29 8 -65 8 -82 1 -27 -2 -24 -41 33
-24 34 -48 62 -55 62 -10 0 -75 -26 -92 -37 -3 -2 118 -342 125 -351 3 -5 74
18 74 23 0 2 -13 40 -30 85 -16 45 -30 84 -30 88 0 4 23 -28 51 -70 51 -77 62
-86 87 -69 11 6 11 24 2 95 -7 48 -10 89 -7 92 2 3 17 -31 32 -76 17 -48 34
-80 42 -80 11 0 47 14 60 24 5 4 -126 351 -133 352 -5 1 -30 -7 -55 -17z"/>
<path d="M7784 1583 c-54 -81 -100 -153 -102 -159 -2 -7 14 -18 34 -24 30 -10
38 -10 45 1 24 39 24 40 58 28 30 -11 32 -14 26 -48 -5 -33 -3 -39 20 -49 14
-7 32 -12 38 -12 8 0 24 60 46 173 19 94 36 177 38 183 3 9 -81 54 -100 54 -2
0 -48 -66 -103 -147z"/>
<path d="M8065 1622 c-22 -14 -35 -34 -47 -71 -15 -49 -16 -55 -1 -87 12 -24
29 -38 60 -50 40 -16 44 -20 38 -43 -9 -34 -9 -34 -45 -26 -24 5 -31 11 -27
25 4 14 -3 22 -26 29 -42 15 -46 14 -57 -15 -8 -19 -5 -34 9 -63 17 -32 28
-40 80 -56 59 -17 60 -17 94 3 l35 20 17 -38 c16 -35 23 -40 80 -55 60 -17 64
-17 94 1 23 14 35 31 46 70 19 64 19 68 0 104 -12 22 -27 33 -60 41 -30 8 -45
17 -45 28 0 31 15 42 48 35 26 -5 31 -10 27 -25 -5 -14 1 -19 30 -25 19 -3 38
-10 40 -14 3 -5 -6 -62 -20 -126 -14 -65 -24 -123 -21 -129 5 -15 165 -50 176
-39 4 5 10 21 14 37 7 30 8 29 -62 47 -39 10 -42 13 -36 38 4 15 8 29 10 31 2
2 29 -1 60 -8 49 -11 55 -15 51 -34 -13 -53 -18 -115 -10 -120 4 -3 22 -7 38
-8 l30 -4 16 90 c16 89 16 90 22 45 4 -25 8 -67 10 -95 2 -45 4 -50 27 -53 24
-3 29 4 60 80 39 93 47 87 27 -20 -14 -72 -14 -72 9 -78 48 -12 58 -2 71 66
l11 65 -5 -71 c-6 -83 -12 -79 110 -90 l77 -6 0 41 c0 37 -3 41 -24 41 -13 0
-37 3 -53 6 -26 5 -28 9 -25 38 l4 31 51 -5 52 -5 3 -72 c3 -71 3 -72 33 -78
17 -4 33 -5 36 -2 3 3 8 48 11 99 l7 93 23 -97 24 -98 48 0 c47 0 47 0 54 38
3 20 6 64 6 98 0 34 3 82 6 108 6 44 8 46 40 46 l34 0 0 -145 0 -145 40 0 40
0 0 145 0 145 30 0 c28 0 30 2 30 40 l0 40 -139 0 c-117 0 -140 -2 -145 -16
-3 -9 -6 -50 -7 -92 l0 -77 -27 89 c-20 64 -33 91 -47 96 -11 4 -61 10 -111
14 -50 3 -124 13 -164 22 -40 8 -78 13 -85 11 -6 -3 -24 -38 -40 -78 -17 -42
-31 -65 -32 -54 -1 11 -5 50 -8 87 l-6 67 -57 6 c-31 4 -94 16 -140 26 -103
24 -102 24 -102 -3 -1 -19 -4 -17 -20 13 -17 32 -27 39 -84 54 -59 16 -66 16
-87 1 -31 -22 -35 -21 -49 13 -9 22 -25 34 -69 50 -70 25 -69 25 -106 3z m80
-82 c18 -7 25 -15 21 -25 -4 -10 6 -18 33 -26 37 -11 39 -13 29 -40 -15 -44
16 -90 71 -106 24 -7 46 -14 47 -16 2 -2 -1 -17 -7 -34 -10 -29 -12 -30 -43
-21 -25 8 -32 15 -29 28 4 14 -4 19 -37 25 -31 5 -40 11 -36 22 25 64 0 115
-64 134 -39 12 -46 22 -34 53 7 19 14 19 49 6z"/>
<path d="M10809 1547 c-24 -13 -57 -42 -73 -65 -26 -37 -30 -51 -30 -111 -1
-61 2 -74 29 -112 38 -53 86 -79 148 -79 55 0 90 16 128 57 42 44 53 73 53
138 -1 67 -16 105 -61 148 -54 51 -126 60 -194 24z m48 -66 c20 -9 33 -9 55 0
15 6 28 15 28 20 0 16 26 10 44 -10 14 -15 14 -19 3 -24 -25 -10 -28 -59 -4
-84 11 -13 26 -23 34 -23 16 0 16 1 2 -39 -7 -19 -15 -29 -20 -24 -19 19 -67
2 -79 -27 -7 -16 -9 -34 -5 -39 4 -7 -6 -11 -27 -11 -28 0 -33 4 -34 25 -3 39
-22 55 -65 55 -22 0 -39 3 -39 8 0 4 -3 17 -6 30 -4 14 -2 22 7 22 27 0 56 39
51 70 -2 17 -8 30 -13 30 -17 0 -9 22 14 40 16 14 23 15 25 6 2 -7 15 -19 29
-25z"/>
</g>
</svg>
